<svg width="20" height="20" viewBox="0 0 20 20" fill="none" xmlns="http://www.w3.org/2000/svg">
<path fill-rule="evenodd" clip-rule="evenodd" d="M0.878029 0.0113368L0.776581 0.000510173C0.407399 -0.0132618 0.0758636 0.253153 0.0111097 0.634934L0.000499955 0.738454C-0.0129962 1.11518 0.248083 1.45349 0.622217 1.51957L2.13122 1.78589L3.04575 12.9043L3.06468 13.0714C3.24868 14.3393 4.31732 15.2924 5.59012 15.2924H16.5021L16.6665 15.2871C17.8628 15.2091 18.8547 14.2859 19.0293 13.0595L19.9784 6.36706L19.9948 6.21334C20.0821 4.98975 19.1322 3.92779 17.9091 3.92779H3.81222L3.57749 1.0688L3.5598 0.955677C3.49136 0.661464 3.25698 0.431493 2.95803 0.378695L0.878029 0.0113368ZM5.47419 13.7553C4.97892 13.7 4.58284 13.2941 4.54054 12.7767L3.93823 5.45845H17.9091L17.9973 5.46506C18.313 5.51296 18.5411 5.81427 18.4939 6.14791L17.5449 12.8399L17.5211 12.9595C17.4007 13.4275 16.9853 13.7618 16.5021 13.7618H5.59013L5.47419 13.7553ZM3.90851 18.4551C3.90851 17.6019 4.58618 16.9091 5.42251 16.9091C6.25872 16.9091 6.93751 17.6018 6.93751 18.4551C6.93751 19.3085 6.25861 20 5.42251 20C4.58629 20 3.90851 19.3084 3.90851 18.4551ZM15.1599 18.4551C15.1599 17.6018 15.8387 16.9091 16.6749 16.9091C17.5111 16.9091 18.1899 17.6018 18.1899 18.4551C18.1899 19.3085 17.511 20 16.6749 20C15.8388 20 15.1599 19.3085 15.1599 18.4551ZM15.6486 8.46467C15.6486 8.04199 15.3128 7.69934 14.8986 7.69934H12.1256L12.0238 7.70633C11.6578 7.75701 11.3756 8.07722 11.3756 8.46467C11.3756 8.88735 11.7114 9.23 12.1256 9.23H14.8986L15.0004 9.22302C15.3665 9.17234 15.6486 8.85213 15.6486 8.46467Z" fill="black"/>
</svg>
