<svg width="20" height="20" viewBox="0 0 20 20" fill="none" xmlns="http://www.w3.org/2000/svg">
<path fill-rule="evenodd" clip-rule="evenodd" d="M0.40482 9.82054C-0.826136 5.79546 0.811517 1.57618 4.48311 0.331885C6.2404 -0.263125 8.14194 -0.0490105 9.73299 0.9013L9.99639 1.06768L10.2645 0.900366C11.773 0.00136959 13.5624 -0.238856 15.2463 0.248665L15.512 0.331947C19.1847 1.57663 20.8291 5.79791 19.5937 9.83701C18.9743 11.7159 17.9584 13.4194 16.6174 14.8236C14.7927 16.6889 12.7812 18.3362 10.6218 19.734L10.3926 19.8839C10.1598 20.0362 9.86561 20.0388 9.63044 19.8907L9.38488 19.7359C7.22254 18.3362 5.21101 16.6889 3.38004 14.8171C2.04534 13.4194 1.02947 11.7159 0.40482 9.82054ZM9.57125 2.62672L9.37453 2.47818C8.07044 1.53989 6.43319 1.28778 4.93141 1.79627C2.08734 2.76012 0.797954 6.08211 1.79195 9.333C2.33864 10.9913 3.23493 12.4943 4.40569 13.7204C6.15363 15.5072 8.08037 17.0851 10.1439 18.4209L10.0011 18.3262L10.469 18.0164C12.1024 16.9063 13.6409 15.6465 15.0635 14.2549L15.5915 13.7268C16.7685 12.4943 17.6648 10.9913 18.2063 9.34946C19.2046 6.08522 17.9096 2.76089 15.064 1.79651C13.4871 1.26402 11.7659 1.56902 10.4359 2.61711C10.1805 2.81834 9.8306 2.82223 9.57125 2.62672Z" fill="black"/>
</svg>
