<svg width="16" height="20" viewBox="0 0 16 20" fill="none" xmlns="http://www.w3.org/2000/svg">
<path fill-rule="evenodd" clip-rule="evenodd" d="M8.00431 0C5.07029 0 2.69179 2.38864 2.69179 5.33519C2.69179 8.28173 5.07029 10.6704 8.00431 10.6704C10.9383 10.6704 13.3168 8.28173 13.3168 5.33519C13.3168 2.38864 10.9383 0 8.00431 0ZM8.00441 1.44742C10.1423 1.44742 11.8754 3.18791 11.8754 5.33493C11.8754 7.48194 10.1423 9.22243 8.00441 9.22243C5.86651 9.22243 4.1334 7.48194 4.1334 5.33493C4.1334 3.18791 5.86651 1.44742 8.00441 1.44742ZM5.83005 12.8209C5.05233 12.8749 4.26621 12.9859 3.4908 13.1521C1.99418 13.4603 0.796852 14.0763 0.287239 15.0999C0.0950274 15.5002 -0.00161033 15.9288 2.0295e-05 16.3627C-0.000556342 16.7935 0.095299 17.2227 0.280618 17.6153C0.769943 18.6271 1.8278 19.1996 3.25624 19.517L3.51213 19.5704C4.26648 19.7406 5.05284 19.8552 5.84446 19.909C5.91189 19.9288 6.07257 19.9472 6.24796 19.9561L6.39222 19.9615C6.46639 19.9632 6.55058 19.9637 6.676 19.9637C7.81384 20.0263 8.99342 20.008 10.1675 19.9081C10.7932 19.8653 11.4231 19.7834 12.0477 19.6636L12.5151 19.5665C14.0576 19.2622 15.2126 18.6836 15.7186 17.6164C16.0937 16.8241 16.0937 15.9047 15.7188 15.1127C15.214 14.0482 14.0737 13.4744 12.5034 13.1509C11.8873 13.0194 11.2612 12.922 10.6307 12.8599L10.1697 12.8209C8.72593 12.6935 7.27382 12.6935 5.83005 12.8209ZM10.0436 14.2629L10.0563 14.2639C10.7799 14.3148 11.4992 14.4164 12.2087 14.5679C13.3751 14.8082 14.1667 15.2065 14.4171 15.7347C14.6057 16.1329 14.6057 16.5957 14.417 16.9943C14.183 17.4878 13.4721 17.869 12.4445 18.102L12.2196 18.1497C11.496 18.3111 10.7792 18.4152 10.0576 18.4646C8.93798 18.5598 7.825 18.577 6.71482 18.517L6.32121 18.5102C6.21195 18.5047 6.11986 18.4941 6.03452 18.477C5.35877 18.426 4.75071 18.3453 4.16032 18.2283L3.8078 18.1536C2.63776 17.9243 1.8392 17.5242 1.58029 16.9889C1.48969 16.7969 1.4413 16.5802 1.44159 16.3608C1.44078 16.1427 1.48853 15.9309 1.58123 15.7378C1.83298 15.2323 2.67924 14.7969 3.78611 14.5689C4.50078 14.4158 5.21967 14.3143 5.94299 14.2639C7.31608 14.1429 8.68377 14.1429 10.0436 14.2629Z" fill="black"/>
</svg>
