<svg width="18" height="18" viewBox="0 0 18 18" fill="none" xmlns="http://www.w3.org/2000/svg">
<path fill-rule="evenodd" clip-rule="evenodd" d="M8.65039 0C3.87291 0 0 3.78737 0 8.45933C0 13.1313 3.87291 16.9187 8.65039 16.9187C10.6936 16.9187 12.5714 16.2259 14.0515 15.0675L16.8631 17.8098L16.9379 17.8728C17.199 18.0617 17.569 18.0402 17.8052 17.8086C18.0651 17.5538 18.0645 17.1413 17.804 16.8873L15.0255 14.1772C16.4384 12.6715 17.3008 10.6639 17.3008 8.45933C17.3008 3.78737 13.4279 0 8.65039 0ZM8.65051 1.30298C12.6921 1.30298 15.9685 4.50699 15.9685 8.45935C15.9685 12.4117 12.6921 15.6157 8.65051 15.6157C4.6089 15.6157 1.33252 12.4117 1.33252 8.45935C1.33252 4.50699 4.6089 1.30298 8.65051 1.30298Z" fill="black"/>
</svg>
